# xmcd
#
# Track frame offsets: 
#        150
#        15265
#        30175
#        46477
#        63605
#        80610
#        96962
#        115262
#        133205
#        148087
#        170452
#
# Disc length: 2440 seconds
#
# Revision: 0
# Processed by: cddbd v1.5PL3 Copyright (c) Steve Scherf et al.
# Submitted via: ExactAudioCopy v0.95a3
#
DISCID=9109860b
DTITLE=Oakridge Boys - From the Heart
DYEAR=2001
DGENRE=Christian Country
TTITLE0=Workin' on a Building
TTITLE1=Show Me the Way
TTITLE2=Angels Watching Over Me
TTITLE3=Then You'll See Me
TTITLE4=Write Your Name
TTITLE5=First Step To Heaven
TTITLE6=There's A Mansion
TTITLE7=Fall To Fly
TTITLE8=Ahead
TTITLE9=Lovin' Gog, Lovin' Each Other
TTITLE10=The Love of Christ
EXTD=
EXTT0=
EXTT1=
EXTT2=
EXTT3=
EXTT4=
EXTT5=
EXTT6=
EXTT7=
EXTT8=
EXTT9=
EXTT10=
PLAYORDER=
